<svg width="191" height="191" viewBox="0 0 191 191" fill="none" xmlns="http://www.w3.org/2000/svg">
<path d="M48.1097 131.568C85.0498 178.502 156.526 164.354 159.626 96.9262M42.2704 141.309C43.0083 132.495 49.1019 127.836 59.602 126.676M148.353 98.8407C155.34 93.4192 162.895 94.7515 170.855 101.697M190 95.5001C190 147.691 147.691 190 95.4999 190C43.309 190 1 147.691 1 95.5001C1 43.3092 43.309 1 95.4999 1C147.691 1 190 43.3092 190 95.5001Z" stroke="white" stroke-width="2" stroke-miterlimit="1.5" stroke-linecap="round" stroke-linejoin="round"/>
<path d="M63.4959 98.5681C65.9105 100.923 69.5895 99.6975 70.1144 96.3655C71.053 90.408 71.5948 81.2182 68.5704 72.0898C65.5513 62.9772 59.6562 55.9718 55.3573 51.7786C52.9427 49.4234 49.2636 50.6493 48.7387 53.9812C47.8002 59.9388 47.2583 69.1285 50.2827 78.2569C53.3019 87.3695 59.1969 94.3749 63.4959 98.5681Z" fill="white"/>
<path d="M116.643 81.2214C119.057 83.5766 122.736 82.3507 123.261 79.0188C124.2 73.0612 124.742 63.8715 121.717 54.7431C118.698 45.6305 112.803 38.6251 108.504 34.4319C106.09 32.0767 102.41 33.3025 101.886 36.6345C100.947 42.592 100.405 51.7818 103.43 60.9102C106.449 70.0228 112.344 77.0282 116.643 81.2214Z" fill="white"/>
<path d="M63.4959 98.5681C65.9105 100.923 69.5895 99.6975 70.1144 96.3655C71.053 90.408 71.5948 81.2182 68.5704 72.0898C65.5513 62.9772 59.6562 55.9718 55.3573 51.7786C52.9427 49.4234 49.2636 50.6493 48.7387 53.9812C47.8002 59.9388 47.2583 69.1285 50.2827 78.2569C53.3019 87.3695 59.1969 94.3749 63.4959 98.5681Z" stroke="white" stroke-width="0.00051922" stroke-miterlimit="1.5" stroke-linecap="round" stroke-linejoin="round"/>
<path d="M116.643 81.2214C119.057 83.5766 122.736 82.3507 123.261 79.0188C124.2 73.0612 124.742 63.8715 121.717 54.7431C118.698 45.6305 112.803 38.6251 108.504 34.4319C106.09 32.0767 102.41 33.3025 101.886 36.6345C100.947 42.592 100.405 51.7818 103.43 60.9102C106.449 70.0228 112.344 77.0282 116.643 81.2214Z" stroke="white" stroke-width="0.00051922" stroke-miterlimit="1.5" stroke-linecap="round" stroke-linejoin="round"/>
</svg>
